HIERARCHY
ROOT Hips
{
	OFFSET -0.001795 -0.223333 0.028219
	CHANNELS 6 Xposition Yposition Zposition Zrotation Yrotation Xrotation 
	JOINT LeftUpLeg
	{
		OFFSET 0.069520 -0.091406 -0.006815
		CHANNELS 3 Zrotation Yrotation Xrotation
		JOINT LeftLeg
		{
			OFFSET 0.034277 -0.375199 -0.004496
			CHANNELS 3 Zrotation Yrotation Xrotation
			JOINT LeftFoot
			{
				OFFSET -0.013596 -0.397961 -0.043693
				CHANNELS 3 Zrotation Yrotation Xrotation
				JOINT LeftToe
				{
					OFFSET 0.026358 -0.055791 0.119288
					CHANNELS 3 Zrotation Yrotation Xrotation
					End Site
					{
						OFFSET 0.000000 0.000000 0.000000
					}
				}
			}
		}
	}
	JOINT RightUpLeg
	{
		OFFSET -0.067670 -0.090522 -0.004320
		CHANNELS 3 Zrotation Yrotation Xrotation
		JOINT RightLeg
		{
			OFFSET -0.038290 -0.382569 -0.008850
			CHANNELS 3 Zrotation Yrotation Xrotation
			JOINT RightFoot
			{
				OFFSET 0.015774 -0.398415 -0.042312
				CHANNELS 3 Zrotation Yrotation Xrotation
				JOINT RightToe
				{
					OFFSET -0.025372 -0.048144 0.123348
					CHANNELS 3 Zrotation Yrotation Xrotation
					End Site
					{
						OFFSET 0.000000 0.000000 0.000000
					}
				}
			}
		}
	}
	JOINT Spine
	{
		OFFSET -0.002533 0.108963 -0.026696
		CHANNELS 3 Zrotation Yrotation Xrotation
		JOINT Spine1
		{
			OFFSET 0.005487 0.135180 0.001092
			CHANNELS 3 Zrotation Yrotation Xrotation
			JOINT Spine2
			{
				OFFSET 0.001457 0.052922 0.025425
				CHANNELS 3 Zrotation Yrotation Xrotation
				JOINT Neck
				{
					OFFSET -0.002778 0.213870 -0.042857
					CHANNELS 3 Zrotation Yrotation Xrotation
					JOINT Head
					{
						OFFSET 0.005152 0.064970 0.051349
						CHANNELS 3 Zrotation Yrotation Xrotation
						End Site
						{
							OFFSET 0.000000 0.000000 0.000000
						}
					}
				}
				JOINT LeftShoulder
				{
					OFFSET 0.078845 0.121749 -0.034090
					CHANNELS 3 Zrotation Yrotation Xrotation
					JOINT LeftArm
					{
						OFFSET 0.090977 0.030469 -0.008868
						CHANNELS 3 Zrotation Yrotation Xrotation
						JOINT LeftForeArm
						{
							OFFSET 0.259612 -0.012772 -0.027456
							CHANNELS 3 Zrotation Yrotation Xrotation
							JOINT LeftHand
							{
								OFFSET 0.249234 0.008986 -0.001171
								CHANNELS 3 Zrotation Yrotation Xrotation
								End Site
								{
									OFFSET 0.000000 0.000000 0.000000
								}
							}
						}
					}
				}
				JOINT RightShoulder
				{
					OFFSET -0.081759 0.118833 -0.038615
					CHANNELS 3 Zrotation Yrotation Xrotation
					JOINT RightArm
					{
						OFFSET -0.096012 0.032551 -0.009143
						CHANNELS 3 Zrotation Yrotation Xrotation
						JOINT RightForeArm
						{
							OFFSET -0.253742 -0.013329 -0.021401
							CHANNELS 3 Zrotation Yrotation Xrotation
							JOINT RightHand
							{
								OFFSET -0.255298 0.007772 -0.005559
								CHANNELS 3 Zrotation Yrotation Xrotation
								End Site
								{
									OFFSET 0.000000 0.000000 0.000000
								}
							}
						}
					}
				}
			}
		}
	}
}
MOTION
Frames: 13
Frame Time: 0.050000
0.000000 0.943837 0.000000 -0.040709 -4.263411 6.720491 5.296876 -0.270683 -3.544205 -0.570744 0.204933 -4.729582 1.587320 5.988756 9.073077 0.000000 0.000000 0.000000 -3.498330 0.468819 -4.370214 -1.364020 -0.071471 -3.959530 -0.302474 -5.200352 9.473534 0.000000 0.000000 0.000000 5.401351 0.383633 -5.938478 -2.896838 1.294826 -4.906635 -3.326943 5.459556 5.896321 6.653029 -3.042358 -12.861825 0.000000 0.000000 0.000000 -16.946402 0.728670 -2.756167 -55.544965 -4.724284 -4.464510 -6.625935 -17.300077 1.547441 0.000000 0.000000 0.000000 14.392394 -6.945262 -4.093149 63.761662 3.268349 -4.295170 8.305475 20.416502 2.183957 0.000000 0.000000 0.000000 
-0.000025 0.943294 -0.000033 -0.102477 -4.748897 7.526864 5.419241 -0.264175 -3.289463 -0.726300 0.258001 -6.041161 1.885544 6.489488 9.194630 0.000000 0.000000 0.000000 -3.450649 0.558338 -5.507885 -1.664339 -0.032843 -3.528682 0.212726 -4.388406 9.871992 0.000000 0.000000 0.000000 6.234132 0.442964 -6.432649 -3.402827 1.499281 -4.887324 -4.157928 6.128224 4.951878 7.374305 -3.344598 -13.388006 0.000000 0.000000 0.000000 -17.952029 1.198467 -3.319019 -54.157189 -4.703363 -4.206842 -6.823560 -17.341913 1.551642 0.000000 0.000000 0.000000 14.429333 -8.412290 -4.760205 64.699547 2.333080 -4.691333 8.435334 20.338737 2.211893 0.000000 0.000000 0.000000 
-0.000028 0.943223 -0.000138 0.211499 -4.591146 7.292424 5.026192 -0.283181 -3.645380 -0.550828 0.200098 -4.611892 1.599790 5.738546 8.114396 0.000000 0.000000 0.000000 -3.638242 0.552262 -5.452542 -1.933138 -0.022706 -3.672245 -0.414183 -5.619171 9.878272 0.000000 0.000000 0.000000 6.092871 0.420969 -6.220936 -3.263144 1.429366 -5.628706 -4.368438 5.648126 5.264224 6.913447 -3.279632 -12.275631 0.000000 0.000000 0.000000 -17.759619 0.638055 -2.900771 -54.294264 -4.225307 -4.488123 -5.963784 -16.835146 1.399070 0.000000 0.000000 0.000000 15.503808 -7.036224 -4.255723 63.551647 2.400614 -4.711005 8.149612 20.200084 2.131716 0.000000 0.000000 0.000000 
-0.000057 0.943355 -0.000121 0.326486 -4.369950 7.832901 5.374853 -0.300029 -3.913561 -1.033956 0.256487 -5.349569 1.213114 5.333641 9.143306 0.000000 0.000000 0.000000 -3.742129 0.598715 -6.059932 -1.894958 -0.038407 -3.921250 -0.629349 -6.260046 10.554230 0.000000 0.000000 0.000000 6.147382 0.444666 -6.571293 -3.466125 1.527854 -4.952910 -4.350393 5.011601 3.843980 6.981027 -3.553226 -10.943546 0.000000 0.000000 0.000000 -18.025184 1.264567 -3.204464 -54.543598 -4.563170 -4.219299 -4.976856 -16.246983 1.214101 0.000000 0.000000 0.000000 14.590050 -7.199499 -4.329368 63.884287 2.071791 -4.743520 9.379814 20.138892 2.287884 0.000000 0.000000 0.000000 
-0.000100 0.943730 -0.000143 0.564971 -4.049480 7.737315 4.878352 -0.320858 -4.163438 -0.635388 0.217882 -5.007761 1.250357 5.390748 8.988023 0.000000 0.000000 0.000000 -3.842043 0.592628 -6.013631 -2.191551 -0.028230 -4.080152 -0.878391 -6.652803 10.400195 0.000000 0.000000 0.000000 5.933676 0.418706 -6.381346 -3.275307 1.452376 -4.904971 -4.471029 4.807767 3.795031 6.541470 -3.260514 -10.923128 0.000000 0.000000 0.000000 -18.061002 0.896618 -3.024031 -54.475283 -5.092263 -3.968197 -5.111429 -15.692002 1.191241 0.000000 0.000000 0.000000 14.584999 -7.101183 -4.279227 63.736308 2.364778 -4.571165 9.426816 19.571389 2.219434 0.000000 0.000000 0.000000 
-0.000148 0.943983 -0.000069 0.716550 -3.914753 7.952263 4.760931 -0.334392 -4.321206 -0.789279 0.233691 -5.184326 1.351747 5.643014 9.229521 0.000000 0.000000 0.000000 -3.908486 0.590903 -5.970042 -2.538310 -0.030296 -4.471716 -0.866403 -6.840857 11.078442 0.000000 0.000000 0.000000 5.729365 0.413947 -6.445014 -3.154496 1.400358 -5.057338 -4.466650 4.722742 3.746199 6.631177 -3.377623 -10.585538 0.000000 0.000000 0.000000 -18.472754 1.116898 -3.203282 -54.258896 -5.230338 -3.871610 -4.810309 -15.389969 1.129251 0.000000 0.000000 0.000000 14.304825 -6.957244 -4.175600 64.029930 2.452127 -4.525113 9.215845 19.129647 2.125917 0.000000 0.000000 0.000000 
-0.000198 0.944173 -0.000056 0.795475 -3.672584 7.997795 4.618535 -0.346686 -4.468069 -0.654220 0.221643 -5.109826 1.353564 5.774127 9.632068 0.000000 0.000000 0.000000 -3.869050 0.591400 -5.995752 -2.772136 -0.016723 -4.483330 -0.700260 -6.503683 11.114792 0.000000 0.000000 0.000000 5.618181 0.398970 -6.351377 -3.085655 1.376424 -4.910251 -4.545357 4.392276 3.675091 6.560445 -3.265679 -11.031102 0.000000 0.000000 0.000000 -18.444366 1.087316 -3.144595 -54.401475 -5.149537 -3.916964 -4.911205 -15.236385 1.135312 0.000000 0.000000 0.000000 14.175835 -6.800184 -4.110852 64.220810 2.587852 -4.460210 9.282582 19.003739 2.112074 0.000000 0.000000 0.000000 
-0.000244 0.944488 -0.000146 0.811054 -3.340410 8.252547 4.527508 -0.373045 -4.851915 -0.446819 0.201691 -4.950928 1.261238 5.592309 9.427285 0.000000 0.000000 0.000000 -3.757126 0.602478 -6.153789 -3.040700 -0.004394 -4.547560 -0.682027 -6.446015 11.172403 0.000000 0.000000 0.000000 5.559572 0.391017 -6.362790 -2.972587 1.332015 -4.892501 -4.735835 4.306016 3.603733 6.651735 -3.373585 -10.676036 0.000000 0.000000 0.000000 -18.407649 0.968177 -3.112225 -54.201252 -5.300578 -3.817702 -5.038602 -14.933919 1.125264 0.000000 0.000000 0.000000 14.293163 -6.878965 -4.144487 64.329168 2.698856 -4.386031 9.033002 18.784084 2.050848 0.000000 0.000000 0.000000 
-0.000298 0.944903 -0.000299 0.854722 -3.233035 8.350617 4.506937 -0.391742 -5.177047 -0.406943 0.191748 -4.735376 1.285311 5.668305 9.517661 0.000000 0.000000 0.000000 -3.716219 0.605928 -6.200036 -3.107330 -0.012553 -4.737456 -0.620994 -6.356246 11.296821 0.000000 0.000000 0.000000 5.452050 0.371054 -6.206194 -2.941411 1.317261 -5.117403 -4.670054 4.302892 3.841073 6.653037 -3.350277 -10.835823 0.000000 0.000000 0.000000 -18.243765 0.903664 -3.052003 -54.277077 -5.471073 -3.771088 -5.259830 -14.681303 1.135082 0.000000 0.000000 0.000000 14.355934 -7.006482 -4.207141 64.143028 2.778329 -4.353283 9.064217 18.808883 2.062787 0.000000 0.000000 0.000000 
-0.000374 0.945229 -0.000443 0.889023 -3.030732 8.454578 4.506115 -0.412054 -5.527711 -0.381383 0.184687 -4.581613 1.281413 5.707074 9.614139 0.000000 0.000000 0.000000 -3.661399 0.611241 -6.279984 -3.219200 -0.019110 -4.942918 -0.637988 -6.453797 11.571847 0.000000 0.000000 0.000000 5.459684 0.366823 -6.195029 -2.949799 1.323494 -5.017202 -4.733759 4.308233 3.778001 6.698673 -3.391635 -10.697897 0.000000 0.000000 0.000000 -17.966604 0.779369 -2.977126 -54.248889 -5.723280 -3.649094 -5.587552 -14.242292 1.136990 0.000000 0.000000 0.000000 14.384387 -7.067139 -4.219871 64.112288 2.950181 -4.238832 8.727971 18.640908 1.996371 0.000000 0.000000 0.000000 
-0.000438 0.945352 -0.000533 0.915954 -2.960017 8.533689 4.544800 -0.418394 -5.643158 -0.390629 0.183057 -4.513483 1.241804 5.622537 9.529593 0.000000 0.000000 0.000000 -3.663839 0.613328 -6.305804 -3.211634 -0.028971 -5.089116 -0.607891 -6.448117 11.760241 0.000000 0.000000 0.000000 5.441019 0.355270 -6.097117 -2.942908 1.320947 -5.044431 -4.778663 4.354371 3.783541 6.802943 -3.473809 -10.586567 0.000000 0.000000 0.000000 -17.872319 0.619006 -2.901024 -54.217975 -5.823889 -3.599250 -5.649621 -14.127506 1.133500 0.000000 0.000000 0.000000 14.351481 -7.043532 -4.189158 64.074942 3.056027 -4.169746 8.572926 18.466664 1.954617 0.000000 0.000000 0.000000 
-0.000495 0.945314 -0.000573 0.930755 -2.806075 8.650242 4.663136 -0.425825 -5.796378 -0.496978 0.191168 -4.532738 1.203028 5.597195 9.627709 0.000000 0.000000 0.000000 -3.660896 0.611760 -6.279575 -3.309343 -0.035177 -5.267376 -0.623039 -6.550615 12.055105 0.000000 0.000000 0.000000 5.434343 0.356529 -6.151535 -2.982906 1.341029 -4.854640 -4.799267 4.381846 3.592671 6.885953 -3.528509 -10.511623 0.000000 0.000000 0.000000 -17.523149 0.626218 -2.881752 -54.328028 -6.001889 -3.513612 -5.736003 -13.872936 1.119324 0.000000 0.000000 0.000000 14.138590 -7.302319 -4.275022 64.227305 3.013212 -4.159339 8.468662 18.447679 1.939631 0.000000 0.000000 0.000000 
-0.000547 0.945321 -0.000558 0.844851 -2.805464 8.712920 4.772582 -0.423216 -5.785492 -0.418093 0.187067 -4.582238 1.203087 5.584745 9.585024 0.000000 0.000000 0.000000 -3.496824 0.605711 -6.180522 -3.441379 -0.044449 -5.504634 -0.505399 -6.406290 12.292616 0.000000 0.000000 0.000000 5.430101 0.360336 -6.202788 -2.974134 1.338373 -4.744102 -4.702995 4.477365 3.482648 7.039850 -3.690745 -10.135905 0.000000 0.000000 0.000000 -17.408210 0.612781 -2.876677 -54.319499 -6.211144 -3.408826 -5.776325 -13.859911 1.120721 0.000000 0.000000 0.000000 14.195969 -7.474849 -4.358129 64.085521 3.054199 -4.111544 8.506065 18.563208 1.961351 0.000000 0.000000 0.000000 
